Coordinates
version=1
nRows=5
nColumns=40
inDegrees=yes

Units are S.I. units (second, meters, Newtons, ...)
If the header above contains a line with 'inDegrees', this indicates whether rotational values are in degrees (yes) or radians (no).

endheader
time	pelvis_tilt	pelvis_list	pelvis_rotation	pelvis_tx	pelvis_ty	pelvis_tz	hip_flexion_r	hip_adduction_r	hip_rotation_r	knee_angle_r	knee_angle_r_beta	ankle_angle_r	subtalar_angle_r	mtp_angle_r	hip_flexion_l	hip_adduction_l	hip_rotation_l	knee_angle_l	knee_angle_l_beta	ankle_angle_l	subtalar_angle_l	mtp_angle_l	lumbar_extension	lumbar_bending	lumbar_rotation	arm_flex_r	arm_add_r	arm_rot_r	elbow_flex_r	pro_sup_r	wrist_flex_r	wrist_dev_r	arm_flex_l	arm_add_l	arm_rot_l	elbow_flex_l	pro_sup_l	wrist_flex_l	wrist_dev_l
      2.94500000	    -36.48020633	      3.00541734	      3.62751767	     -0.43948968	      0.60872926	     -0.93400747	    103.80774756	    -17.93385070	     12.30187398	    102.12747073	      1.78246062	     36.56534860	      0.00000000	      0.00000000	    104.02052060	    -12.86594449	      1.67280537	    100.26899010	      1.75002401	     32.27549629	      0.00000000	      0.00000000	    -35.17355501	     -2.33320642	      0.06013834	    -32.08112162	    -55.59979674	     28.23483214	    104.73653639	     88.16063499	      0.00000000	      0.00000000	     16.15301711	    -66.34911986	     77.76463069	    109.45806302	     88.15726170	      0.00000000	      0.00000000
      2.95000000	    -36.50752912	      3.07077358	      3.57595366	     -0.43942696	      0.60885725	     -0.93393874	    103.83789454	    -17.87155022	     12.35559317	    102.09607241	      1.78191262	     36.54321310	      0.00000000	      0.00000000	    103.99698479	    -12.92064482	      1.61283901	    100.25164608	      1.74972130	     32.29899731	      0.00000000	      0.00000000	    -35.18091727	     -2.41073653	      0.04516288	    -32.01946162	    -55.60947481	     28.29969514	    104.73229084	     88.16403510	      0.00000000	      0.00000000	     16.05910415	    -66.36652560	     77.65338134	    109.46485930	     88.15794729	      0.00000000	      0.00000000
      2.95500000	    -36.57351395	      3.07269207	      3.57435287	     -0.43946327	      0.60887815	     -0.93395269	    103.89393251	    -17.86203929	     12.35979697	    102.06745011	      1.78141306	     36.54132005	      0.00000000	      0.00000000	    104.05048686	    -12.90365156	      1.61651495	    100.22777611	      1.74930470	     32.28165373	      0.00000000	      0.00000000	    -35.12917682	     -2.39858466	      0.04904639	    -32.04657061	    -55.62017785	     28.28937076	    104.76006769	     88.16208229	      0.00000000	      0.00000000	     16.06277130	    -66.35863987	     77.67392746	    109.44356089	     88.15891648	      0.00000000	      0.00000000
      2.96000000	    -36.58266863	      3.03694566	      3.52049520	     -0.43935404	      0.60902593	     -0.93378563	    103.85234809	    -17.79856174	     12.29422020	    102.03732389	      1.78088726	     36.55104458	      0.00000000	      0.00000000	    104.05118301	    -12.95838726	      1.67805770	    100.21406010	      1.74906531	     32.30279225	      0.00000000	      0.00000000	    -35.14528884	     -2.38923537	      0.11726455	    -32.04291988	    -55.61437449	     28.28937184	    104.74666424	     88.16262642	      0.00000000	      0.00000000	     16.06877355	    -66.36896564	     77.68864904	    109.45669532	     88.15781899	      0.00000000	      0.00000000
      2.96500000	    -36.62125768	      2.98761610	      3.52285066	     -0.43931153	      0.60911877	     -0.93374075	    103.84548367	    -17.78921833	     12.24404492	    102.01093010	      1.78042660	     36.51148136	      0.00000000	      0.00000000	    104.09876631	    -12.94430177	      1.73476567	    100.20843251	      1.74896709	     32.25907326	      0.00000000	      0.00000000	    -35.15689752	     -2.30712899	     -0.27407640	    -31.21141908	    -55.94532331	     29.10345312	    104.77362214	     88.18421347	      0.00000000	      0.00000000	     13.93420809	    -66.51431392	     75.43346143	    109.51219319	     88.19508178	      0.00000000	      0.00000000
